<svg width="15" height="19" viewBox="0 0 15 19" fill="none" xmlns="http://www.w3.org/2000/svg">
<g clip-path="url(#clip0_12_292)">
<path d="M13.5937 7.46876C13.5937 5.8526 12.9517 4.30263 11.8089 3.15983C10.6661 2.01703 9.11616 1.37501 7.49999 1.37501C5.88383 1.37501 4.33386 2.01703 3.19106 3.15983C2.04826 4.30263 1.40624 5.8526 1.40624 7.46876C1.40624 9.96855 3.40635 13.2267 7.49999 17.1294C11.5936 13.2267 13.5937 9.96855 13.5937 7.46876ZM7.49999 18.9792C2.53427 14.4657 0.0520782 10.628 0.0520782 7.46876C0.0520782 5.49345 0.836767 3.59904 2.23352 2.20229C3.63028 0.805533 5.52468 0.0208435 7.49999 0.0208435C9.4753 0.0208435 11.3697 0.805533 12.7665 2.20229C14.1632 3.59904 14.9479 5.49345 14.9479 7.46876C14.9479 10.628 12.4657 14.4657 7.49999 18.9792Z" fill="white"/>
<path d="M7.49999 9.50001C8.03872 9.50001 8.55537 9.286 8.93631 8.90507C9.31724 8.52414 9.53124 8.00748 9.53124 7.46876C9.53124 6.93004 9.31724 6.41338 8.93631 6.03245C8.55537 5.65152 8.03872 5.43751 7.49999 5.43751C6.96127 5.43751 6.44462 5.65152 6.06368 6.03245C5.68275 6.41338 5.46874 6.93004 5.46874 7.46876C5.46874 8.00748 5.68275 8.52414 6.06368 8.90507C6.44462 9.286 6.96127 9.50001 7.49999 9.50001ZM7.49999 10.8542C6.60213 10.8542 5.74103 10.4975 5.10614 9.86261C4.47126 9.22772 4.11458 8.36663 4.11458 7.46876C4.11458 6.57089 4.47126 5.7098 5.10614 5.07491C5.74103 4.44002 6.60213 4.08334 7.49999 4.08334C8.39786 4.08334 9.25896 4.44002 9.89385 5.07491C10.5287 5.7098 10.8854 6.57089 10.8854 7.46876C10.8854 8.36663 10.5287 9.22772 9.89385 9.86261C9.25896 10.4975 8.39786 10.8542 7.49999 10.8542Z" fill="white"/>
</g>
<defs>
<clipPath id="clip0_12_292">
<rect width="15" height="19" fill="white"/>
</clipPath>
</defs>
</svg>
