<svg width="292" height="58" viewBox="0 0 292 58" fill="none" xmlns="http://www.w3.org/2000/svg">
<g clip-path="url(#clip0_23_142)">
<path d="M59.1393 47.4433C58.6403 47.4089 57.8311 47.3654 57.8311 47.3654L57.82 46.8556L57.7196 46.6893L57.5966 46.6869V46.1114L57.5115 45.9709V42.7778C57.7582 42.7925 57.9921 42.814 58.191 42.8428V42.241C58.027 41.9931 57.7974 41.7594 57.5115 41.5379V41.068V36.5952V33.6143L57.4007 33.5235V30.8193L57.3836 30.7506V28.2936L57.2189 28.0924V27.9132H57.075V28.0924L56.9116 28.3243H56.6544L56.5412 28.4322L55.3572 28.4328L55.2446 28.3236L54.9875 28.3114L54.8216 28.1102V27.931H54.679V28.1102L54.5131 28.3114V28.9132L54.4469 28.9003C54.2149 30.1267 53.0781 35.4572 51.7056 37.9387C49.6805 34.8504 47.4241 27.3875 45.5257 19.8184C43.9585 13.5683 42.6148 7.14272 41.8747 3.4502V1.15702L41.4021 0.572988V0.055213H40.9815V0.572988L40.5095 1.19137H39.7633L39.4407 1.50486L36.0082 1.50302L35.6819 1.18953H34.9357V1.10119L34.4637 0.517162V0H34.0431V0.517162L33.5699 1.10181V1.90178C32.4772 3.58946 30.6113 6.43906 28.5611 9.45062C25.3159 14.2161 21.3839 19.7356 18.6175 22.7888C16.028 25.6458 13.6564 28.0151 11.4899 29.9622L10.1842 31.1254C9.8995 31.3702 9.10918 32.0321 9.10918 32.0321C5.41409 35.0823 2.40095 36.8504 0 37.8381V43.671C1.04437 43.6385 8.41314 43.2962 22.5354 42.6367H29.2981V41.9484C30.9847 41.779 32.4196 41.6349 33.2008 41.5674V52.3192L32.9559 52.7265V54.3909L32.5947 54.4007L32.3051 54.8805L32.2733 56.3571C32.2733 56.3571 29.9293 56.4865 28.4858 56.5835C27.0423 56.6773 25.982 56.9718 25.982 56.9718V57.5473C25.982 57.5473 27.7144 58 31.0526 58C32.0089 58 43.3543 58 44.3087 58C47.6493 58 49.3787 57.5473 49.3787 57.5473V56.9718C49.3787 56.9718 48.3203 56.678 46.8762 56.5835C45.4327 56.4865 43.088 56.3571 43.088 56.3571L43.0556 54.8805L42.7672 54.4007L42.4893 54.3927V52.7824L42.2444 52.3763V41.0692C48.8921 40.8214 52.3766 41.2251 54.3876 42.2551V45.9906L54.3012 46.1311V46.6881L54.207 46.6893L54.1078 46.8556L54.0949 47.3654C54.0949 47.3654 53.2875 47.4089 52.7879 47.4433C52.2915 47.4776 51.9248 47.5776 51.9248 47.5776V47.7764C51.9248 47.7764 52.5235 47.9322 53.675 47.9322C53.8433 47.9322 54.9342 47.9568 56.0147 47.9568C57.0548 47.9568 58.0882 47.9322 58.2504 47.9322C59.4031 47.9322 60 47.7764 60 47.7764V47.5776C60.0024 47.5776 59.6364 47.4776 59.1393 47.4433ZM0.509943 38.1209L0.224056 38.1295L0.509331 38.0086L0.509943 38.1209ZM1.58431 38.0957L0.741345 38.1154V37.9055C1.0156 37.7829 1.29598 37.6503 1.58431 37.508V38.0957ZM2.65929 38.0712L1.81571 38.0908V37.3921C2.09058 37.2528 2.37157 37.1043 2.65929 36.9473V38.0712ZM3.73366 38.0491L2.8907 38.0657V36.8197C3.16556 36.6651 3.44778 36.5013 3.73366 36.3289V38.0491ZM4.80864 38.027L3.96629 38.0424V36.1878C4.24177 36.0197 4.52214 35.8424 4.80864 35.6572V38.027ZM5.88424 38.0086L5.04127 38.0221V35.5044C5.31736 35.321 5.59835 35.1308 5.88424 34.9326V38.0086ZM6.95922 37.9908L6.11625 38.0043V34.7707C6.39234 34.5768 6.67333 34.3744 6.95922 34.1646V37.9908ZM8.03481 37.9749L7.19123 37.9878V33.9928C7.46794 33.7854 7.74892 33.5707 8.03481 33.3492V37.9749ZM9.10918 37.9601L8.26621 37.9712V33.1677C8.54353 32.9499 8.82391 32.7241 9.10918 32.491V37.9601ZM10.1842 37.946L9.34058 37.9571V32.3014C9.6179 32.0726 9.8995 31.8364 10.1842 31.5935V37.946ZM11.2585 37.8736L11.0957 37.9362L10.4156 37.9448V31.3941C10.6935 31.1542 10.9739 30.9076 11.2585 30.6555V37.8736ZM12.3335 37.924L12.0948 37.9252L12.3335 37.8258V37.924ZM12.3335 37.4387C12.0495 37.562 11.7691 37.6767 11.4899 37.7859V30.4481C11.7679 30.2009 12.0488 29.9457 12.3335 29.6813V37.4387ZM13.4085 37.9147L12.5649 37.9221V37.7264C12.8447 37.6043 13.1251 37.4743 13.4085 37.3375V37.9147ZM13.4085 36.9405C13.1251 37.0798 12.8441 37.2123 12.5649 37.3369V29.4659C12.8428 29.2083 13.1244 28.9426 13.4085 28.6715V36.9405ZM14.4835 37.9062L13.6405 37.9135V37.2234C13.9197 37.0841 14.2006 36.9399 14.4835 36.7872V37.9062ZM14.4835 36.3823C14.2006 36.5375 13.9197 36.686 13.6405 36.8258V28.45C13.919 28.1819 14.1994 27.9089 14.4835 27.628V36.3823ZM15.5585 37.9L14.7149 37.9055V36.6608C14.9946 36.5074 15.275 36.3473 15.5585 36.1786V37.9ZM15.5585 35.7621C15.275 35.9326 14.9946 36.0976 14.7149 36.2535V27.3979C14.9934 27.1212 15.2744 26.839 15.5585 26.5501V35.7621ZM16.6334 37.8957L15.7899 37.9006V36.0387C16.0696 35.87 16.3506 35.6933 16.6334 35.5087V37.8957ZM16.6334 35.0823C16.3506 35.2694 16.0696 35.4504 15.7899 35.6228V26.3139C16.0684 26.0292 16.3494 25.7378 16.6334 25.4415V35.0823ZM17.7084 37.8933L16.8654 37.8957V35.3547C17.1446 35.1694 17.4256 34.9756 17.7084 34.7744V37.8933ZM17.7084 34.3376C17.4256 34.5412 17.1446 34.7382 16.8654 34.9265V25.1986C17.1434 24.906 17.4244 24.6072 17.7084 24.3023V34.3376ZM18.7834 37.8914L17.9398 37.8933V34.6087C18.2196 34.4069 18.5006 34.1971 18.7834 33.9799V37.8914ZM18.7834 33.5302C18.5006 33.7505 18.2196 33.9627 17.9398 34.1689V24.0532C18.2184 23.7526 18.4987 23.4453 18.7834 23.133V33.5302ZM19.8584 37.8902H19.0154V33.7995C19.2952 33.5824 19.5768 33.3542 19.8584 33.1198V37.8902ZM19.8584 32.6585C19.5756 32.8965 19.2946 33.1266 19.0154 33.3474V22.8772C19.2866 22.5741 19.5676 22.249 19.8584 21.9042V32.6585ZM20.9334 37.8921L20.0898 37.8902V32.9259C20.3702 32.691 20.6511 32.4487 20.9334 32.1971V37.8921ZM20.9334 31.7192C20.6518 31.9751 20.3702 32.2217 20.0898 32.4609V21.6275C20.364 21.2975 20.6456 20.9515 20.9334 20.5914V31.7192ZM22.0083 37.8957L21.1648 37.8933V31.9886C21.4451 31.7358 21.7261 31.4763 22.0083 31.2082V37.8957ZM22.0083 30.715L21.8626 30.8561C21.6288 31.0788 21.3968 31.2972 21.1648 31.5088V20.3006C21.4415 19.9503 21.7225 19.5896 22.0083 19.2178V30.715ZM23.0827 37.8988L22.2391 37.8951V30.9849C22.5195 30.7137 22.8005 30.4285 23.0827 30.1309V37.8988ZM23.0827 29.6138C22.7999 29.9168 22.5189 30.2076 22.2391 30.4855V18.916C22.5177 18.5516 22.7993 18.178 23.0827 17.7976V29.6138ZM24.1577 37.9055L23.3141 37.9V29.8868C23.5945 29.5862 23.8755 29.2733 24.1577 28.9518V37.9055ZM24.1577 28.4101C23.8761 28.7377 23.5945 29.0555 23.3141 29.3616V17.4866C23.5933 17.1099 23.8749 16.7271 24.1577 16.3394V28.4101ZM25.2321 37.9147L24.3891 37.9074V28.6856C24.6695 28.3605 24.9511 28.0243 25.2321 27.6795V37.9147ZM25.2321 27.1139C24.9511 27.4642 24.6701 27.8065 24.3891 28.1378V16.0204C24.6695 15.6332 24.9511 15.2425 25.2321 14.8492V27.1139ZM26.307 37.9233L25.4641 37.9147V27.3936C25.7445 27.0452 26.0267 26.6869 26.307 26.3219V37.9233ZM26.307 25.7366C26.0267 26.1071 25.7457 26.4703 25.4641 26.8249V14.5253C25.7463 14.1284 26.0279 13.7315 26.307 13.3327V25.7366ZM27.3814 37.9344L26.5391 37.9227V26.0182C26.82 25.6477 27.1016 25.2704 27.3814 24.8869V37.9344ZM27.3814 24.2814C27.1016 24.6704 26.82 25.0532 26.5391 25.4293V13.002C26.8225 12.5978 27.1035 12.1941 27.3814 11.791V24.2814ZM28.457 37.9473L27.614 37.9374V24.5679C27.8969 24.1771 28.1779 23.7808 28.457 23.3809V37.9473ZM28.457 22.7576C28.1779 23.1631 27.8969 23.5637 27.614 23.9587V11.4573C27.8987 11.045 28.1809 10.6359 28.457 10.2304V22.7576ZM29.532 37.962L28.689 37.9491V23.0471C28.9712 22.6392 29.2528 22.2251 29.532 21.8079V37.962ZM29.532 21.168C29.2528 21.5895 28.9712 22.0067 28.689 22.4208V9.8911L28.8543 9.64939L29.532 8.6488V21.168ZM30.6076 37.9792L29.7634 37.9663V21.4619C30.0474 21.0355 30.3278 20.6061 30.6076 20.1748V37.9792ZM30.6076 19.5184C30.3297 19.954 30.0474 20.3877 29.7634 20.8184V8.30587L30.6076 7.05008V19.5184ZM31.6819 37.9976L30.8402 37.9847V19.8147C31.1224 19.3724 31.4034 18.9282 31.6819 18.4835V37.9976ZM31.6819 17.8105C31.4034 18.2595 31.1224 18.708 30.8402 19.1546V6.70347L31.6819 5.4348V17.8105ZM32.7569 38.0197L31.9127 38.0037V18.1111C32.1986 17.6528 32.4808 17.1939 32.7569 16.7363V38.0197ZM32.7569 16.0498C32.4808 16.5105 32.1986 16.9731 31.9127 17.4363V5.0845L32.7569 3.80356V16.0498ZM33.5185 16.2541L33.2014 16.5179V25.1606V38.0301L32.9865 38.0252V16.3541L33.516 15.4688H33.5173L33.5185 16.2541ZM33.5626 14.6529L32.9877 15.6627V3.44897L33.5699 2.55697L33.5626 14.6529ZM39.4382 3.83792H39.5037L39.4382 3.96552V3.83792ZM39.437 20.0122H39.4921C39.7051 20.6809 39.9225 21.3478 40.1404 22.0134V26.5341H39.9023L39.5582 26.9218H39.4382L39.437 20.0122ZM39.437 30.5144L39.4633 30.6138L39.7027 31.0358L39.7908 31.4996L39.8331 32.3738L40.1404 32.4192V38.2215C39.778 38.2098 39.4382 38.2019 39.4382 38.2019L39.437 30.5144ZM38.362 3.83792H39.2062V4.41704C38.9454 4.92377 38.662 5.4667 38.362 6.03907V3.83792ZM38.362 6.81328C38.6632 6.2452 38.9454 5.70841 39.2062 5.20413V5.67589V9.13529L38.362 9.13959V6.81328ZM38.362 11.4659H39.2062V17.1271L38.984 17.1265C38.7722 16.4179 38.564 15.7124 38.362 15.0155V11.4659ZM38.362 16.3136L38.6038 17.1246H38.362V16.3136ZM38.362 20.0122H39.2062V26.9218L38.362 26.92V20.0122ZM38.362 30.2297L39.2062 30.2309V38.1945L38.362 38.1663V30.2297ZM37.2883 3.8373L38.1312 3.83792V6.48016C37.8631 6.98812 37.5827 7.51817 37.2883 8.06355V3.8373ZM37.2883 8.81874C37.5815 8.27704 37.8625 7.75251 38.1312 7.24946V9.14081L37.3972 9.1445H37.2883V8.81874ZM38.1312 11.4653V14.2057C37.8655 13.2726 37.6121 12.3567 37.3697 11.4683L38.0498 11.4653H38.1312ZM37.2883 12.553C37.5564 13.5198 37.8368 14.5143 38.1312 15.524V17.1252H37.2883V12.553ZM37.2883 20.0122H37.4701H38.1312V26.92H37.2883V20.0122ZM37.2883 30.2285L38.1312 30.2297V38.1595L37.2883 38.1331V30.2285ZM38.4336 41.2594L37.9004 41.8858H37.579L37.1046 41.3306L38.4336 41.2594ZM37.819 48.2537H37.6598L36.1 46.4243V46.1304H39.3537V46.4494L37.819 48.2537ZM37.8864 49.6904L39.4994 51.5738V51.7352H36.0057V51.5438L37.5925 49.6917V49.6898L37.8864 49.6904ZM36.1012 45.4642V45.1599L37.6733 43.3256H37.8062L39.3556 45.136V45.4642H36.1012ZM37.055 30.2285V38.1258L36.2133 38.1019V30.2285H37.055ZM36.2133 26.9194V20.0104L37.055 20.011V26.9194H36.2133ZM36.2133 3.83607L37.055 3.8373V8.49421L36.7348 9.09051C36.5506 8.39176 36.3761 7.72 36.2133 7.08014V3.83607ZM36.2133 8.54451L36.37 9.14511H36.2133V8.54451ZM36.2121 11.4751L36.9907 11.4708L37.0544 11.7101V17.1246H36.2114L36.2121 11.4751ZM36.138 41.3797L37.0073 42.3919V42.9324L35.5331 44.6618H35.3048V41.4263L36.138 41.3797ZM35.9825 38.097L35.306 38.0792V32.4106L35.5582 32.3726L35.6011 31.4978L35.6874 31.034L35.9268 30.6119L35.9819 30.4021H35.9831L35.9825 38.097ZM35.306 26.5311V20.9503L35.5129 20.873L35.5558 20.3405L35.8092 20.0092L35.9813 20.0104V26.9176H35.8356L35.4903 26.5311H35.306ZM35.7639 3.97288V3.83546H35.9813V6.16606C35.7817 5.37038 35.5999 4.63421 35.4376 3.97288H35.7639ZM35.1389 4.27103C35.3813 5.26854 35.6623 6.40655 35.9819 7.64822V8.63224L35.9782 9.14511L35.6531 8.83162H35.1389V4.27103ZM35.1389 12.6836C35.3709 12.2757 35.598 11.8739 35.8215 11.4763L35.9819 11.4751V17.124H35.7725L35.4285 16.7357H35.3054V16.5179L35.1389 16.378V12.6836ZM35.3048 50.9346V47.1267V46.885H35.6274L35.6256 47.0519L37.0079 48.6647V49.2052L35.5338 50.934L35.3048 50.9346ZM39.8949 54.3369L35.5521 54.3332L35.5387 52.7038L35.8723 52.4039H39.5943L39.8943 52.9302L39.8949 54.3369ZM40.1398 47.1825V51.0297L40.0229 51.0229L38.4802 49.215V48.6555L39.9977 46.885H40.1398V47.1825ZM40.1422 44.663H39.9463L38.4802 42.9428V42.3858L39.4933 41.2018L40.1422 41.165V44.663ZM40.2812 16.4578L40.1404 16.5731V16.7387H40.0204L39.6764 17.1265H39.4388V11.4653H39.7119V11.6033H39.9518L40.2818 12.2119L40.2812 16.4578ZM40.2812 4.69126V8.81997H39.7933L39.4382 9.13345V5.67589V4.75752L39.8398 3.97411V3.97472H40.2126L40.28 4.06183L40.2812 4.69126ZM53.5073 34.2664C53.6223 33.8756 53.7331 33.4836 53.8372 33.0983V39.2662C53.6964 39.3711 53.5483 39.4245 53.345 39.4104V34.7964C53.4013 34.6179 53.4546 34.4425 53.5073 34.2664ZM52.7157 36.5921C52.8902 36.1498 53.0555 35.6848 53.2085 35.2179L53.2238 39.3865C53.2489 39.3945 53.2777 39.3994 53.3199 39.408C53.3175 39.408 53.3138 39.408 53.3101 39.408C53.2807 39.4018 53.252 39.3951 53.2073 39.3816C53.0463 39.3337 52.8822 39.2429 52.7139 39.1147V36.5921H52.7157ZM51.4595 38.1577L51.5238 38.2534L51.4595 38.3528V38.1577ZM42.5218 38.3282L42.2457 38.3141V27.8887L42.5218 28.5862V38.3282ZM42.5205 8.36783V27.6102L42.2457 26.8906V16.5731L42.0271 16.3921V6.00962C42.1777 6.74396 42.3436 7.5335 42.523 8.36783H42.5205ZM43.1498 38.3663L42.6558 38.3362V28.9224C42.8199 29.3255 42.9846 29.7211 43.1498 30.1095V38.3663ZM43.1498 29.1874C42.9846 28.785 42.8199 28.3752 42.6558 27.9586V9.00278C42.8125 9.73159 42.9784 10.4911 43.1498 11.2733V29.1874ZM43.7785 38.4086L43.2845 38.3755V30.4248C43.4486 30.8045 43.612 31.1763 43.7785 31.5389V38.4086ZM43.7785 30.6726C43.6126 30.2954 43.4486 29.9083 43.2845 29.5162V11.8855C43.4425 12.5984 43.6071 13.329 43.7785 14.0713V30.6726ZM44.406 38.4564L43.9132 38.4184V31.834C44.0773 32.1873 44.2407 32.5339 44.406 32.8695V38.4564ZM44.4085 32.0616C44.2426 31.7107 44.0785 31.3499 43.9132 30.9794V14.6603C44.0748 15.3523 44.2377 16.0553 44.4085 16.7633V32.0616ZM45.0366 38.5068L44.5425 38.4675V33.1425C44.7066 33.4701 44.8688 33.7897 45.0366 34.0989V38.5068ZM45.0366 33.348C44.8701 33.0241 44.7066 32.6904 44.5425 32.3462V17.3277C44.7029 17.9976 44.8688 18.6712 45.0366 19.3466V33.348ZM45.6653 38.5626L45.1712 38.5196V34.3486C45.3341 34.6468 45.5 34.9382 45.6653 35.2185V38.5626ZM45.6653 34.5271C45.5 34.2333 45.3365 33.9265 45.1712 33.6112V19.8889C45.3329 20.5337 45.4988 21.1785 45.6653 21.8202V34.5271ZM46.294 38.6245L45.8 38.5773V35.4461C45.9652 35.7167 46.1269 35.978 46.294 36.2265V38.6245ZM46.294 35.5976C46.1281 35.3332 45.9652 35.0572 45.8 34.7688V22.3379C45.9628 22.9551 46.1269 23.5698 46.294 24.1784V35.5976ZM46.9233 38.6908L46.428 38.638V36.4295C46.5933 36.6706 46.7568 36.9007 46.9233 37.1185V38.6908ZM46.9233 36.5461C46.7574 36.3148 46.5933 36.07 46.428 35.8117V24.671C46.5933 25.2599 46.7568 25.8421 46.9233 26.4176V36.5461ZM47.5508 38.7632L47.0568 38.7055V37.2939C47.222 37.5037 47.3855 37.7013 47.5508 37.8847V38.7632ZM47.552 37.3694C47.3861 37.1724 47.2233 36.9608 47.058 36.7356V26.8826C47.2208 27.4408 47.3843 27.9905 47.552 28.5292V37.3694ZM48.1819 38.8411L47.6867 38.7791V38.0338C47.852 38.2092 48.0148 38.3724 48.1819 38.5196V38.8411ZM48.1819 38.0558C48.0166 37.8963 47.852 37.7191 47.6867 37.5301V28.9672C47.8507 29.4917 48.0148 30.0052 48.1819 30.5064V38.0558ZM48.316 38.8577V38.6399C48.4274 38.7337 48.537 38.8221 48.6484 38.9043L48.316 38.8577ZM48.8088 38.5982C48.646 38.4773 48.4801 38.3393 48.316 38.1853V30.9137C48.4801 31.4027 48.6447 31.8775 48.8088 32.3389V38.5982ZM49.4375 38.9791C49.2734 38.9024 49.11 38.8061 48.9435 38.6933V32.7131C49.1088 33.1615 49.2722 33.5953 49.4375 34.0143V38.9791ZM50.0662 39.1166L49.5734 39.0399V34.3529C49.7375 34.7602 49.9003 35.1486 50.0662 35.5191V39.1166ZM50.6955 39.1362C50.6441 39.1613 50.5927 39.181 50.5425 39.1969L50.2003 39.1386V35.8197C50.3662 36.1811 50.5302 36.5203 50.6955 36.8369V39.1362ZM51.3242 39.3411L51.0818 39.2957C51.1645 39.2307 51.2465 39.157 51.3242 39.0761V39.3411ZM51.3242 38.5479C51.1614 38.7663 50.9967 38.9405 50.8302 39.0552V37.0951C50.9961 37.4025 51.1602 37.6878 51.3242 37.9473V38.5479ZM51.9529 39.4693C51.7883 39.4325 51.6254 39.4018 51.4583 39.3681V38.9233C51.5513 38.811 51.6481 38.6871 51.7368 38.5528C51.8085 38.6472 51.8813 38.7386 51.9529 38.8245V39.4693ZM52.5835 39.6092C52.4182 39.5711 52.2535 39.5349 52.0895 39.4975V38.981C52.2535 39.1644 52.417 39.3184 52.5835 39.4392V39.6092ZM52.5835 39.0024C52.4182 38.8589 52.2547 38.6822 52.0895 38.4712V37.9687C52.2615 37.6503 52.4243 37.2964 52.5835 36.9252V39.0024ZM53.8384 39.9319C53.675 39.8871 53.5134 39.8417 53.3469 39.7693C53.3114 39.7668 53.2777 39.7619 53.2073 39.7619C53.0451 39.7214 52.8822 39.6791 52.7139 39.6398V39.5331C52.8798 39.6398 53.0451 39.7116 53.2397 39.7558C53.2758 39.7619 53.3089 39.7668 53.3438 39.7687C53.5146 39.7822 53.6787 39.7472 53.8354 39.6668H53.8366V39.9312L53.8384 39.9319ZM54.3888 40.0932C54.2523 40.0503 54.1151 40.0092 53.975 39.9699V39.5889C54.1194 39.492 54.2572 39.3576 54.3888 39.1926V40.0932ZM54.4678 33.5676L54.3888 33.6333V36.6154V38.5951C54.2559 38.8215 54.1176 39.011 53.975 39.1497V32.5849C54.1709 31.8272 54.3374 31.118 54.4678 30.5334V33.5676ZM56.4898 29.2371H56.6269V29.285H56.6844C56.6355 29.6457 56.5712 30.099 56.4916 30.6107V29.2371H56.4898ZM55.8592 29.2377L56.4212 29.2371V31.0352L56.4151 31.0708L55.8592 31.0696V29.2377ZM56.4212 33.0989V33.8235H56.2767C56.3269 33.5805 56.3759 33.3394 56.4212 33.0989ZM56.2816 31.8726C56.1714 32.4953 56.0447 33.1585 55.9039 33.8235H55.8617L55.8605 31.8708L56.2816 31.8726ZM55.8592 35.5964C55.9272 35.34 55.9921 35.0793 56.0515 34.821L56.4212 34.8204V37.2043H55.8592V35.5964ZM55.8592 38.346H56.0661H56.4212V40.8778C56.2431 40.7889 56.0576 40.7055 55.8592 40.6226V38.346ZM55.9719 44.5673H55.9156L55.3848 43.9452V43.8354H56.51V43.9354L55.9719 44.5673ZM55.9957 45.0636L56.5436 45.7028V45.7685H55.337V45.7127L55.8941 45.0624L55.9957 45.0636ZM55.3836 38.346H55.7925V40.5938C55.6119 40.5202 55.4252 40.4466 55.2318 40.3766V38.8693L55.2354 38.7834L55.2666 38.6233L55.3499 38.4785L55.3836 38.346ZM55.3762 37.2056C55.5256 36.778 55.667 36.3209 55.7925 35.8541V37.2043L55.3762 37.2056ZM55.6872 42.7336L55.1816 43.3275H55.1161V42.6845C55.2091 42.7072 55.4172 42.7183 55.6872 42.7336ZM55.3848 43.6047V43.4906L55.9217 42.8643H55.9658L56.51 43.498V43.6035H55.3848V43.6047ZM55.2722 29.2856V29.2377H55.7925V31.0683L55.3487 31.0653L55.2348 30.9579L55.2305 29.285L55.2722 29.2856ZM55.263 31.9174V31.8708H55.7925V33.8235L55.2771 33.8241L55.2318 33.7738L55.263 31.9174ZM55.2318 34.894L55.2881 34.821H55.6811C55.5427 35.4019 55.3934 35.9694 55.233 36.4958L55.2318 34.894ZM55.1705 36.6964L55.1154 36.8675V36.616V35.1461L55.1705 35.1247V36.6964ZM54.9875 30.7696V29.4138L55.0903 29.2856H55.1693V30.9585H55.0052V30.8395L54.9875 30.7696ZM55.0365 32.1843L55.1693 31.937L55.1565 33.6903H55.1161V33.6333L55.0059 33.5419L55.0365 32.1843ZM55.1142 39.1018L55.1693 39.0932V40.3539L55.1142 40.3355V39.1018ZM55.1154 45.5256V44.1974V44.0949H55.1632L55.686 44.7059V44.8973L55.1552 45.5243L55.1154 45.5256ZM56.6985 46.666L55.2005 46.6672V46.182L55.3034 45.9998H56.5877L56.7034 46.1028L56.6985 46.666ZM56.7836 44.179V45.4936H56.7046L56.1965 44.8961V44.709L56.6734 44.1526L56.6722 44.0943H56.7836V44.179ZM56.7836 43.3275H56.7046L56.2014 42.7355L56.7836 42.7483V43.3275ZM56.7836 41.068C56.6893 41.0165 56.5914 40.9625 56.4898 40.911V38.3448H56.5351L56.57 38.4779L56.6532 38.6227L56.6844 38.7828L56.6973 39.0847L56.7855 39.0975L56.7836 41.068ZM56.7848 36.5952V37.0688H56.7212L56.603 37.2037H56.4898V34.8191L56.6104 34.8179L56.6991 34.9332L56.7132 35.1167L56.7848 35.1437V36.5952ZM56.8938 33.5235L56.6238 33.8235H56.4898V32.7462C56.5436 32.4646 56.5902 32.1885 56.6355 31.9211H56.7169L56.8938 32.1898V33.5235ZM56.9103 30.7499L56.8938 30.8187V30.9591H56.7959C56.8375 30.6904 56.8773 30.4358 56.9109 30.2027L56.9103 30.7499Z" fill="#3DD2CC"/>
<path d="M93.2368 45.498H87.6645L75 13.004H81.6316L90.4276 35.6859L99.2697 13.004H105.855L93.2368 45.498ZM115.296 45.498H109.309V12H115.296V45.498ZM130.447 45.9087C127.546 45.9087 124.783 44.8134 122.664 42.7597C120.592 40.6604 119.441 37.9221 119.441 35.047C119.441 32.1718 120.592 29.4336 122.664 27.3342C124.737 25.2805 127.5 24.1852 130.447 24.1852C132.382 24.1852 134.132 24.8698 135.651 26.2389L135.882 26.4215V24.596H141.454V45.498H135.882V43.855L135.651 44.0832C133.993 45.6805 132.105 45.9087 130.447 45.9087ZM130.447 29.5248C127.5 29.5248 125.013 32.0805 125.013 35.047C125.013 38.0591 127.5 40.5691 130.447 40.5691C133.395 40.5691 135.882 38.0591 135.882 35.047C135.882 32.0805 133.395 29.5248 130.447 29.5248ZM156.513 45.9087C153.612 45.9087 150.849 44.8134 148.73 42.7597C146.658 40.6604 145.507 37.9221 145.507 35.047C145.507 32.1718 146.658 29.4336 148.73 27.3342C150.803 25.2805 153.566 24.1852 156.513 24.1852C158.447 24.1852 160.197 24.8698 161.717 26.2389L161.947 26.4215V12H167.52V45.498H161.947V43.855L161.717 44.0832C160.059 45.6805 158.171 45.9087 156.513 45.9087ZM156.513 29.5248C153.566 29.5248 151.079 32.0805 151.079 35.047C151.079 38.0591 153.566 40.5691 156.513 40.5691C159.461 40.5691 161.947 38.0591 161.947 35.047C161.947 32.0805 159.461 29.5248 156.513 29.5248ZM188.658 46C179.217 46 171.526 38.3785 171.526 28.9772C171.526 19.6215 179.217 12 188.658 12C190.961 12 193.217 12.4564 195.289 13.3235C197.362 14.1906 199.25 15.4228 200.816 17.0201L201.691 17.8872L197.132 21.8577L196.349 21.1275C194.368 19.1195 191.651 18.0698 188.658 18.0698C182.579 18.0698 177.651 22.953 177.651 28.9772C177.651 35.047 182.579 39.9758 188.658 39.9758C191.743 39.9758 194.553 38.7436 196.717 36.553V29.7987H187.737V23.7289H202.75V38.698L202.52 38.9718C199.204 43.3987 194.046 46 188.658 46ZM218.132 46C215.461 46 212.974 45.0416 211.178 43.2617C209.289 41.4819 208.276 39.0631 208.276 36.4617V24.596H214.079V36.4617C214.079 38.6067 215.875 40.3409 218.132 40.3409C220.388 40.3409 222.23 38.6067 222.23 36.4617V24.596H228.033V36.4617C228.033 39.0175 226.974 41.4362 225.086 43.2617C223.243 45.0416 220.803 46 218.132 46ZM240.375 45.498H234.388V24.596H240.375V45.498ZM237.382 22.0859C235.401 22.0859 233.789 20.4886 233.789 18.5718C233.789 17.6134 234.158 16.7463 234.849 16.1074C235.539 15.4228 236.414 15.0577 237.382 15.0577C239.316 15.0577 240.928 16.655 240.928 18.5718C240.928 20.4886 239.316 22.0859 237.382 22.0859ZM256.447 45.9087C253.546 45.9087 250.783 44.8134 248.664 42.7597C246.592 40.6604 245.441 37.9221 245.441 35.047C245.441 32.1718 246.592 29.4336 248.664 27.3342C250.737 25.2805 253.5 24.1852 256.447 24.1852C258.382 24.1852 260.132 24.8698 261.651 26.2389L261.882 26.4215V12H267.454V45.498H261.882V43.855L261.651 44.0832C259.993 45.6805 258.105 45.9087 256.447 45.9087ZM256.447 29.5248C253.5 29.5248 251.013 32.0805 251.013 35.047C251.013 38.0591 253.5 40.5691 256.447 40.5691C259.395 40.5691 261.882 38.0591 261.882 35.047C261.882 32.0805 259.395 29.5248 256.447 29.5248ZM281.73 46H281.684C280.349 46 278.967 45.6805 277.678 45.0872C276.48 44.5852 275.375 43.7638 274.362 42.7141C272.75 40.9799 271.783 38.698 271.553 36.3248C271.507 35.9141 271.461 35.5034 271.461 35.047C271.461 34.1342 271.599 33.1758 271.829 32.2175C272.243 30.3919 273.118 28.7034 274.362 27.4255C275.283 26.4215 276.342 25.6456 277.678 25.0067C278.921 24.4134 280.303 24.1396 281.73 24.1396C283.204 24.1396 284.539 24.4134 285.783 25.0067C287.164 25.6456 288.27 26.4671 289.099 27.4255C290.296 28.7034 291.217 30.3463 291.678 32.2175C291.908 33.0846 292 33.9973 292 35.047V36.0966H276.526L276.572 36.4161C277.171 39.2456 279.336 41.2993 281.73 41.2993H281.776C283.112 41.2081 284.586 40.3866 285.461 39.6564L285.967 39.2456L289.789 42.5315L289.099 43.1248C288.592 43.5812 287.947 44.1289 287.257 44.494H287.211C285.553 45.4523 283.757 45.9544 281.73 46ZM281.73 28.8859C279.934 28.8859 278.138 30.1181 277.171 32.0349L276.987 32.4H286.52L286.336 32.0349C285.276 30.0725 283.526 28.8859 281.73 28.8859Z" fill="white"/>
</g>
<defs>
<clipPath id="clip0_23_142">
<rect width="292" height="58" fill="white"/>
</clipPath>
</defs>
</svg>
