<svg width="15" height="19" viewBox="0 0 15 19" fill="none" xmlns="http://www.w3.org/2000/svg">
<g clip-path="url(#clip0_23_209)">
<path d="M13.5937 7.46875C13.5937 5.85258 12.9516 4.30261 11.8088 3.15981C10.666 2.01701 9.11608 1.37499 7.49992 1.37499C5.88376 1.37499 4.33379 2.01701 3.19099 3.15981C2.04819 4.30261 1.40617 5.85258 1.40617 7.46875C1.40617 9.96854 3.40627 13.2267 7.49992 17.1294C11.5936 13.2267 13.5937 9.96854 13.5937 7.46875ZM7.49992 18.9792C2.53419 14.4657 0.052002 10.628 0.052002 7.46875C0.052002 5.49343 0.836691 3.59903 2.23345 2.20227C3.6302 0.805517 5.52461 0.0208282 7.49992 0.0208282C9.47523 0.0208282 11.3696 0.805517 12.7664 2.20227C14.1631 3.59903 14.9478 5.49343 14.9478 7.46875C14.9478 10.628 12.4656 14.4657 7.49992 18.9792Z" fill="white"/>
<path d="M7.49992 9.5C8.03864 9.5 8.5553 9.28599 8.93623 8.90506C9.31716 8.52412 9.53117 8.00747 9.53117 7.46875C9.53117 6.93002 9.31716 6.41337 8.93623 6.03243C8.5553 5.6515 8.03864 5.43749 7.49992 5.43749C6.9612 5.43749 6.44454 5.6515 6.06361 6.03243C5.68267 6.41337 5.46867 6.93002 5.46867 7.46875C5.46867 8.00747 5.68267 8.52412 6.06361 8.90506C6.44454 9.28599 6.9612 9.5 7.49992 9.5ZM7.49992 10.8542C6.60205 10.8542 5.74096 10.4975 5.10607 9.8626C4.47118 9.22771 4.1145 8.36661 4.1145 7.46875C4.1145 6.57088 4.47118 5.70978 5.10607 5.07489C5.74096 4.44001 6.60205 4.08333 7.49992 4.08333C8.39779 4.08333 9.25888 4.44001 9.89377 5.07489C10.5287 5.70978 10.8853 6.57088 10.8853 7.46875C10.8853 8.36661 10.5287 9.22771 9.89377 9.8626C9.25888 10.4975 8.39779 10.8542 7.49992 10.8542Z" fill="white"/>
</g>
<defs>
<clipPath id="clip0_23_209">
<rect width="15" height="19" fill="white"/>
</clipPath>
</defs>
</svg>
