<svg width="15" height="15" viewBox="0 0 15 15" fill="none" xmlns="http://www.w3.org/2000/svg">
<g clip-path="url(#clip0_27_538)">
<path fill-rule="evenodd" clip-rule="evenodd" d="M10.5469 8.20312H7.5C7.11094 8.20312 6.79688 7.88836 6.79688 7.5V3.28125C6.79688 2.89289 7.11094 2.57812 7.5 2.57812C7.88906 2.57812 8.20312 2.89289 8.20312 3.28125V6.79688H10.5469C10.9359 6.79688 11.25 7.11164 11.25 7.5C11.25 7.88836 10.9359 8.20312 10.5469 8.20312ZM7.5 1.40625C4.13438 1.40625 1.40625 4.13438 1.40625 7.5C1.40625 10.8654 4.13438 13.5938 7.5 13.5938C10.8656 13.5938 13.5938 10.8654 13.5938 7.5C13.5938 4.13438 10.8656 1.40625 7.5 1.40625ZM7.5 15C3.35859 15 0 11.6421 0 7.5C0 3.35789 3.35859 0 7.5 0C11.6414 0 15 3.35789 15 7.5C15 11.6421 11.6414 15 7.5 15Z" fill="#02A7FF"/>
</g>
<defs>
<clipPath id="clip0_27_538">
<rect width="15" height="15" fill="white"/>
</clipPath>
</defs>
</svg>
