<svg width="33" height="34" viewBox="0 0 33 34" fill="none" xmlns="http://www.w3.org/2000/svg">
<g clip-path="url(#clip0_5_35)">
<path fill-rule="evenodd" clip-rule="evenodd" d="M15.4688 25.25H17.5312V27.3125H15.4688V25.25ZM15.4688 29.375H17.5312C18.6698 29.375 19.5938 28.451 19.5938 27.3125V25.25C19.5938 24.1115 18.6698 23.1875 17.5312 23.1875H15.4688C14.3302 23.1875 13.4062 24.1115 13.4062 25.25V27.3125C13.4062 28.451 14.3302 29.375 15.4688 29.375ZM7.21875 25.25H9.28125V27.3125H7.21875V25.25ZM7.21875 29.375H9.28125C10.4198 29.375 11.3438 28.451 11.3438 27.3125V25.25C11.3438 24.1115 10.4198 23.1875 9.28125 23.1875H7.21875C6.08025 23.1875 5.15625 24.1115 5.15625 25.25V27.3125C5.15625 28.451 6.08025 29.375 7.21875 29.375ZM15.4688 17H17.5312V19.0625H15.4688V17ZM15.4688 21.125H17.5312C18.6698 21.125 19.5938 20.201 19.5938 19.0625V17C19.5938 15.8615 18.6698 14.9375 17.5312 14.9375H15.4688C14.3302 14.9375 13.4062 15.8615 13.4062 17V19.0625C13.4062 20.201 14.3302 21.125 15.4688 21.125ZM7.21875 17H9.28125V19.0625H7.21875V17ZM7.21875 21.125H9.28125C10.4198 21.125 11.3438 20.201 11.3438 19.0625V17C11.3438 15.8615 10.4198 14.9375 9.28125 14.9375H7.21875C6.08025 14.9375 5.15625 15.8615 5.15625 17V19.0625C5.15625 20.201 6.08025 21.125 7.21875 21.125ZM29.9062 8.75H3.09375V6.6875C3.09375 5.549 4.01775 4.625 5.15625 4.625H9.28125V5.65625C9.28125 6.22653 9.74222 6.6875 10.3125 6.6875C10.8828 6.6875 11.3438 6.22653 11.3438 5.65625V4.625H21.6562V5.65625C21.6562 6.22653 22.1172 6.6875 22.6875 6.6875C23.2578 6.6875 23.7188 6.22653 23.7188 5.65625V4.625H27.8438C28.9823 4.625 29.9062 5.549 29.9062 6.6875V8.75ZM29.9062 29.375C29.9062 30.5135 28.9823 31.4375 27.8438 31.4375H5.15625C4.01775 31.4375 3.09375 30.5135 3.09375 29.375V10.8125H29.9062V29.375ZM27.8438 2.5625H23.7188V1.53125C23.7188 0.962 23.2578 0.5 22.6875 0.5C22.1172 0.5 21.6562 0.962 21.6562 1.53125V2.5625H11.3438V1.53125C11.3438 0.962 10.8828 0.5 10.3125 0.5C9.74222 0.5 9.28125 0.962 9.28125 1.53125V2.5625H5.15625C2.87822 2.5625 1.03125 4.40947 1.03125 6.6875V29.375C1.03125 31.653 2.87822 33.5 5.15625 33.5H27.8438C30.1218 33.5 31.9688 31.653 31.9688 29.375V6.6875C31.9688 4.40947 30.1218 2.5625 27.8438 2.5625ZM23.7188 17H25.7812V19.0625H23.7188V17ZM23.7188 21.125H25.7812C26.9198 21.125 27.8438 20.201 27.8438 19.0625V17C27.8438 15.8615 26.9198 14.9375 25.7812 14.9375H23.7188C22.5802 14.9375 21.6562 15.8615 21.6562 17V19.0625C21.6562 20.201 22.5802 21.125 23.7188 21.125ZM23.7188 25.25H25.7812V27.3125H23.7188V25.25ZM23.7188 29.375H25.7812C26.9198 29.375 27.8438 28.451 27.8438 27.3125V25.25C27.8438 24.1115 26.9198 23.1875 25.7812 23.1875H23.7188C22.5802 23.1875 21.6562 24.1115 21.6562 25.25V27.3125C21.6562 28.451 22.5802 29.375 23.7188 29.375Z" fill="white"/>
</g>
<defs>
<clipPath id="clip0_5_35">
<rect width="33" height="33" fill="white" transform="translate(0 0.5)"/>
</clipPath>
</defs>
</svg>
