<svg width="35" height="44" viewBox="0 0 35 44" fill="none" xmlns="http://www.w3.org/2000/svg">
<g clip-path="url(#clip0_5_5)">
<path d="M31.7188 17.2961C31.7188 13.5534 30.2207 9.96396 27.5542 7.31748C24.8876 4.67099 21.271 3.18421 17.5 3.18421C13.729 3.18421 10.1124 4.67099 7.44583 7.31748C4.77929 9.96396 3.28125 13.5534 3.28125 17.2961C3.28125 23.085 7.94816 30.6302 17.5 39.668C27.0518 30.6302 31.7188 23.085 31.7188 17.2961ZM17.5 43.9518C5.9133 33.4996 0.121529 24.6123 0.121529 17.2961C0.121529 12.7217 1.95247 8.33461 5.21157 5.10001C8.47066 1.86542 12.8909 0.0482483 17.5 0.0482483C22.1091 0.0482483 26.5293 1.86542 29.7884 5.10001C33.0475 8.33461 34.8785 12.7217 34.8785 17.2961C34.8785 24.6123 29.0867 33.4996 17.5 43.9518Z" fill="white"/>
<path d="M17.5 22C18.757 22 19.9625 21.5044 20.8514 20.6223C21.7402 19.7401 22.2396 18.5436 22.2396 17.2961C22.2396 16.0485 21.7402 14.852 20.8514 13.9699C19.9625 13.0877 18.757 12.5921 17.5 12.5921C16.243 12.5921 15.0375 13.0877 14.1486 13.9699C13.2598 14.852 12.7604 16.0485 12.7604 17.2961C12.7604 18.5436 13.2598 19.7401 14.1486 20.6223C15.0375 21.5044 16.243 22 17.5 22ZM17.5 25.136C15.405 25.136 13.3958 24.31 11.9143 22.8397C10.4329 21.3694 9.60069 19.3753 9.60069 17.2961C9.60069 15.2168 10.4329 13.2227 11.9143 11.7524C13.3958 10.2821 15.405 9.45615 17.5 9.45615C19.595 9.45615 21.6042 10.2821 23.0857 11.7524C24.5671 13.2227 25.3993 15.2168 25.3993 17.2961C25.3993 19.3753 24.5671 21.3694 23.0857 22.8397C21.6042 24.31 19.595 25.136 17.5 25.136Z" fill="white"/>
</g>
<defs>
<clipPath id="clip0_5_5">
<rect width="35" height="44" fill="white"/>
</clipPath>
</defs>
</svg>
