<svg width="22" height="23" viewBox="0 0 22 23" fill="none" xmlns="http://www.w3.org/2000/svg">
<g clip-path="url(#clip0_5_26)">
<path fill-rule="evenodd" clip-rule="evenodd" d="M21.9841 20.9306L15.7368 14.6833C16.8946 13.1946 17.5916 11.3304 17.5916 9.30281C17.5916 4.45674 13.6489 0.514008 8.80278 0.514008C3.95671 0.514008 0.0139771 4.45674 0.0139771 9.30281C0.0139771 14.1489 3.95671 18.0916 8.80278 18.0916C10.8304 18.0916 12.6946 17.3947 14.1833 16.2368L20.4306 22.4841L21.9841 20.9306ZM8.80278 15.8944C5.16796 15.8944 2.21118 12.9376 2.21118 9.30281C2.21118 5.66799 5.16796 2.71121 8.80278 2.71121C12.4376 2.71121 15.3944 5.66799 15.3944 9.30281C15.3944 12.9376 12.4376 15.8944 8.80278 15.8944Z" fill="white"/>
</g>
<defs>
<clipPath id="clip0_5_26">
<rect width="22" height="22" fill="white" transform="translate(0 0.5)"/>
</clipPath>
</defs>
</svg>
